#!OML:ASF F:\VICON\USERDATA\Patient Classification 1\PLAYGROUND\JustinFriday\JustinFriday.ASF
:FULLY-SPECIFIED
:DEGREES
2407
root 13.532 25.1978 51.8879 364.219 -185.163 6.71444
lowerback 36.8646 1.53565 -4.56669
upperback 13.6959 5.29084 3.83189
thorax -3.66797 4.09615 4.46073
lowerneck -6.23022 -20.259 -12.1231
upperneck -16.1586 -24.5262 34.4569
head 2.75153 -11.8478 10.3465
rclavicle 1.02374e-014 1.45113e-014
rhumerus 62.2728 3.70388 -84.0455
rradius 19.9515
rwrist 34.0415
rhand -17.3292 0.295027
rfingers 7.12502
rthumb 8.91773 -29.4965
lclavicle 1.02374e-014 1.45113e-014
lhumerus 59.6116 -3.33738 73.6708
lradius 20.1608
lwrist -33.4474
lhand -14.5181 -21.2203
lfingers 7.12502
lthumb 11.6295 8.43702
rfemur -33.6845 6.70134 29.9365
rtibia 26.9522
rfoot -34.9902 -35.32
rtoes -33.1757
lfemur -35.52 4.40301 -11.4346
ltibia 33.9385
lfoot -37.3686 5.91933
ltoes 0.802202
2408
root 13.5281 25.2159 51.8609 364.429 -185.003 6.86895
lowerback 36.5437 1.40455 -4.24166
upperback 13.7478 5.22113 3.88722
thorax -3.63466 4.06093 4.3768
lowerneck -6.99838 -20.1335 -11.4903
upperneck -15.968 -24.2957 33.623
head 2.63656 -11.6567 9.99602
rclavicle -2.72335e-014 -2.19657e-014
rhumerus 62.0955 3.47859 -84.7425
rradius 19.8693
rwrist 34.8271
rhand -17.251 -0.216184
rfingers 7.12502
rthumb 8.99314 -30.0045
lclavicle -2.72335e-014 -2.19657e-014
lhumerus 59.1702 -3.4881 73.5483
lradius 20.3904
lwrist -33.293
lhand -15.1925 -21.0814
lfingers 7.12502
lthumb 10.9791 8.61146
rfemur -33.8875 6.63537 30.051
rtibia 27.0842
rfoot -34.789 -35.1456
rtoes -32.8769
lfemur -35.6626 4.30463 -11.2959
ltibia 33.8595
lfoot -37.1476 5.84254
ltoes 0.656517
2409
root 13.5289 25.2219 51.8336 364.562 -184.878 6.97468
lowerback 36.3529 1.32189 -4.0494
upperback 13.7394 5.17342 3.92988
thorax -3.5739 4.03663 4.34871
lowerneck -7.28683 -19.9899 -10.8159
upperneck -16.2745 -23.9506 32.9539
head 2.31096 -11.4855 9.7834
rclavicle 3.37934e-015 -4.96962e-015
rhumerus 61.9204 3.34355 -85.2378
rradius 19.8058
rwrist 35.4103
rhand -16.7581 -0.91773
rfingers 7.12502
rthumb 9.46874 -30.685
lclavicle 3.37934e-015 -4.96962e-015
lhumerus 58.7881 -3.64473 73.3837
lradius 20.667
lwrist -33.1983
lhand -15.6871 -20.9414
lfingers 7.12502
lthumb 10.502 8.7763
rfemur -33.9511 6.52458 30.1846
rtibia 27.1379
rfoot -34.5719 -34.9073
rtoes -32.5157
lfemur -35.7568 4.26087 -11.1986
ltibia 33.8787
lfoot -36.9781 5.80816
ltoes 0.119543
2410
root 13.533 25.2344 51.7992 364.276 -184.912 6.81092
lowerback 36.5643 1.38796 -4.25289
upperback 13.7753 5.2186 3.93936
thorax -3.6176 4.06443 4.43848
lowerneck -7.179 -19.6141 -10.8347
upperneck -17.1766 -23.0837 33.045
head 1.89151 -11.0787 10.0484
rclavicle -4.57205e-015 2.28602e-015
rhumerus 61.6573 3.33833 -85.2799
rradius 19.8629
rwrist 35.3907
rhand -16.4498 -1.22785
rfingers 7.12502
rthumb 9.76621 -30.9814
lclavicle -4.57205e-015 2.28602e-015
lhumerus 58.6442 -3.74203 73.4755
lradius 20.5552
lwrist -33.2604
lhand -16.0242 -21.0135
lfingers 7.12502
lthumb 10.1768 8.72033
rfemur -33.4964 6.62003 30.0294
rtibia 27.2072
rfoot -34.9968 -34.8337
rtoes -32.514
lfemur -35.2764 4.20918 -11.3405
ltibia 33.8966
lfoot -36.9808 5.89638
ltoes -0.252401
2411
root 13.541 25.2528 51.7711 364.553 -185.548 6.92023
lowerback 36.0129 1.71767 -4.44585
upperback 13.7994 5.51501 3.96269
thorax -3.45135 4.17216 4.4927
lowerneck -7.45157 -19.2863 -10.7382
upperneck -17.4101 -22.4735 32.6371
head 1.66817 -10.7413 10.0287
rclavicle 9.54166e-015 1.16289e-014
rhumerus 61.3728 3.51923 -84.7447
rradius 20.013
rwrist 34.7666
rhand -16.4394 -1.39319
rfingers 7.12502
rthumb 9.77626 -31.1463
lclavicle 9.54166e-015 1.16289e-014
lhumerus 58.3923 -3.96581 73.1223
lradius 20.523
lwrist -32.8532
lhand -16.4707 -21.0976
lfingers 7.12502
lthumb 9.74602 8.6569
rfemur -33.6745 6.87928 30.2482
rtibia 27.3233
rfoot -34.8085 -34.9685
rtoes -32.3075
lfemur -35.2656 4.54386 -11.1562
ltibia 33.8819
lfoot -36.9755 6.29358
ltoes -0.558778
2412
root 13.5274 25.2759 51.7455 364.701 -184.588 6.84752
lowerback 35.8472 1.1328 -3.76449
upperback 13.7157 4.99546 3.93135
thorax -3.40353 3.94327 4.29257
lowerneck -7.94499 -18.9548 -10.6853
upperneck -17.4579 -21.891 32.1346
head 1.53058 -10.3828 9.9485
rclavicle -1.92821e-014 6.16232e-015
rhumerus 61.1004 3.77387 -84.0658
rradius 20.1412
rwrist 34.031
rhand -16.6694 -1.6529
rfingers 7.12502
rthumb 9.55436 -31.4163
lclavicle -1.92821e-014 6.16232e-015
lhumerus 57.9695 -4.24243 72.6435
lradius 20.8304
lwrist -32.3865
lhand -16.7275 -21.0018
lfingers 7.12502
lthumb 9.49825 8.76415
rfemur -33.8748 6.24412 30.062
rtibia 27.373
rfoot -34.6969 -34.8453
rtoes -31.969
lfemur -35.5543 3.89943 -11.319
ltibia 33.8677
lfoot -36.7786 5.90324
ltoes -0.707866
2413
root 13.515 25.2971 51.7223 364.838 -183.709 6.59211
lowerback 35.75 0.64969 -3.30214
upperback 13.5866 4.51081 3.87991
thorax -3.44369 3.71941 4.16399
lowerneck -8.2924 -18.6264 -10.5611
upperneck -17.8164 -21.2276 31.7507
head 1.28022 -10.0082 9.93492
rclavicle -8.94531e-015 -9.54166e-015
rhumerus 60.7488 4.00797 -83.4771
rradius 20.3059
rwrist 33.2827
rhand -16.9915 -1.89914
rfingers 7.12502
rthumb 9.24351 -31.6765
lclavicle -8.94531e-015 -9.54166e-015
lhumerus 57.6936 -4.32735 72.8896
lradius 20.8781
lwrist -32.601
lhand -16.6366 -21.0475
lfingers 7.12502
lthumb 9.58599 8.71439
rfemur -34.0607 5.62119 29.6827
rtibia 27.3943
rfoot -34.7351 -34.2884
rtoes -31.6503
lfemur -35.8536 3.14354 -11.6272
ltibia 33.8671
lfoot -36.5507 5.49414
ltoes -0.180403
2414
root 13.5317 25.3162 51.6863 364.637 -184.473 6.68016
lowerback 35.9495 1.10909 -3.7409
upperback 13.5881 4.93856 3.93604
thorax -3.5718 3.90852 4.29094
lowerneck -8.7859 -18.2939 -10.5328
upperneck -18.0624 -20.5671 31.4248
head 1.11006 -9.60806 9.92949
rclavicle -3.63776e-014 -2.38542e-014
rhumerus 60.3378 4.10595 -83.3323
rradius 20.5551
rwrist 33.2225
rhand -16.9083 -2.14605
rfingers 7.12502
rthumb 9.32381 -31.9199
lclavicle -3.63776e-014 -2.38542e-014
lhumerus 57.4515 -4.47403 72.9399
lradius 20.8479
lwrist -32.544
lhand -16.5866 -21.0652
lfingers 7.12502
lthumb 9.63417 8.69446
rfemur -33.6426 6.08201 29.9261
rtibia 27.4891
rfoot -34.3887 -34.0056
rtoes -31.2248
lfemur -35.3114 3.78765 -11.4534
ltibia 33.8479
lfoot -36.5317 5.5958
ltoes -0.0141597
2415
root 13.5355 25.3347 51.6497 364.497 -184.711 6.56958
lowerback 36.0735 1.21434 -3.87712
upperback 13.5622 5.01325 3.88274
thorax -3.64811 3.94105 4.27132
lowerneck -9.43432 -17.9282 -10.6005
upperneck -18.0362 -19.9263 30.9371
head 1.03284 -9.19002 9.85705
rclavicle 1.80894e-014 2.62396e-014
rhumerus 59.9937 4.01539 -83.8183
rradius 20.6897
rwrist 33.9525
rhand -16.6541 -2.04649
rfingers 7.12502
rthumb 9.56908 -31.8092
lclavicle 1.80894e-014 2.62396e-014
lhumerus 57.1714 -4.61649 72.7565
lradius 20.8677
lwrist -32.1621
lhand -16.7886 -20.9971
lfingers 7.12502
lthumb 9.43935 8.77152
rfemur -33.37 6.24041 29.8367
rtibia 27.5637
rfoot -34.2194 -33.846
rtoes -30.8881
lfemur -34.986 4.10379 -11.62
ltibia 33.8654
lfoot -36.4227 5.78574
ltoes -0.461646
2416
root 13.533 25.3473 51.6168 364.533 -184.662 6.28146
lowerback 35.9972 1.16662 -3.93831
upperback 13.5177 4.90052 3.77741
thorax -3.65108 3.87924 4.2355
lowerneck -9.75189 -17.5577 -10.6231
upperneck -18.4047 -19.1916 30.5955
head 0.793211 -8.76862 9.88252
rclavicle 1.07344e-014 4.33351e-014
rhumerus 59.6789 4.07764 -83.8958
rradius 20.8613
rwrist 34.0264
rhand -16.7329 -1.93956
rfingers 7.12502
rthumb 9.49307 -31.7057
lclavicle 1.07344e-014 4.33351e-014
lhumerus 56.9742 -4.54183 73.0075
lradius 20.7316
lwrist -32.333
lhand -17.1097 -21.148
lfingers 7.12502
lthumb 9.12945 8.63438
rfemur -33.3351 6.22868 29.4759
rtibia 27.5839
rfoot -34.1897 -33.9219
rtoes -30.7365
lfemur -34.9533 4.03829 -11.9806
ltibia 33.9263
lfoot -36.1118 5.55063
ltoes 0.0825825
2417
root 13.5261 25.3617 51.5853 364.713 -184.274 6.23779
lowerback 35.7517 0.886645 -3.57021
upperback 13.4916 4.65255 3.73296
thorax -3.55558 3.76552 4.09596
lowerneck -10.044 -17.2371 -10.5883
upperneck -18.9022 -18.4878 30.3763
head 0.532149 -8.3665 9.93644
rclavicle -1.45113e-014 -1.43125e-014
rhumerus 59.3576 4.45269 -83.1152
rradius 21.2609
rwrist 33.0631
rhand -16.9577 -2.26516
rfingers 7.12502
rthumb 9.27612 -32.0411
lclavicle -1.45113e-014 -1.43125e-014
lhumerus 56.7374 -4.35648 73.5337
lradius 20.6689
lwrist -32.9751
lhand -17.3297 -21.3526
lfingers 7.12502
lthumb 8.91723 8.43896
rfemur -33.4675 5.90637 29.4018
rtibia 27.6498
rfoot -33.6254 -34.4515
rtoes -30.4509
lfemur -35.1349 3.68932 -12.0517
ltibia 33.9453
lfoot -35.7868 5.10557
ltoes 0.573363
2418
root 13.5222 25.3844 51.5517 364.64 -184.055 6.1932
lowerback 35.7661 0.71046 -3.36185
upperback 13.5057 4.51454 3.69954
thorax -3.52142 3.71322 4.00014
lowerneck -10.5834 -16.9557 -10.4832
upperneck -19.0505 -17.9358 29.9714
head 0.402581 -8.0144 9.85896
rclavicle 5.56597e-015 1.78906e-015
rhumerus 59.1647 4.86592 -82.2103
rradius 21.3795
rwrist 31.941
rhand -17.2205 -2.5287
rfingers 7.12502
rthumb 9.02255 -32.3157
lclavicle 5.56597e-015 1.78906e-015
lhumerus 56.5252 -4.2104 74.0164
lradius 20.5854
lwrist -33.5622
lhand -17.5471 -21.3043
lfingers 7.12502
lthumb 8.70744 8.49612
rfemur -33.3042 5.62713 29.4062
rtibia 27.6954
rfoot -32.6285 -34.6822
rtoes -29.7812
lfemur -34.963 3.50297 -12.0961
ltibia 33.9684
lfoot -35.9329 5.34768
ltoes -0.644425
2419
root 13.5207 25.4012 51.5209 364.736 -183.907 6.39211
lowerback 35.5444 0.546416 -3.00886
upperback 13.5247 4.42288 3.71303
thorax -3.40678 3.67753 3.87345
lowerneck -11.1298 -16.6979 -10.1039
upperneck -19.0487 -17.5104 29.2781
head 0.269803 -7.74364 9.62142
rclavicle -4.17448e-014 -3.00165e-014
rhumerus 58.8401 4.95868 -82.1378
rradius 21.6558
rwrist 31.7714
rhand -17.2878 -2.63514
rfingers 7.12502
rthumb 8.95763 -32.425
lclavicle -4.17448e-014 -3.00165e-014
lhumerus 56.4102 -4.19124 74.137
lradius 20.4425
lwrist -33.7203
lhand -17.7181 -21.2823
lfingers 7.12502
lthumb 8.54237 8.52488
rfemur -33.2944 5.5802 29.6228
rtibia 27.6428
rfoot -31.6135 -34.9175
rtoes -29.0157
lfemur -35.0334 3.40463 -11.863
ltibia 34.0692
lfoot -36.0074 5.5578
ltoes -1.22213
2420
root 13.5239 25.4167 51.4906 364.849 -183.971 6.42726
lowerback 35.293 0.565267 -2.98117
upperback 13.5362 4.43503 3.71258
thorax -3.30877 3.67491 3.86822
lowerneck -11.6524 -16.4241 -9.705
upperneck -19.0468 -17.0703 28.5901
head 0.134599 -7.47064 9.38538
rclavicle -4.17448e-015 -9.74045e-015
rhumerus 58.4798 5.01657 -82.1122
rradius 21.854
rwrist 31.6044
rhand -17.6166 -2.40161
rfingers 7.12502
rthumb 8.64036 -32.2048
lclavicle -4.17448e-015 -9.74045e-015
lhumerus 56.22 -4.28043 74.0936
lradius 20.4415
lwrist -33.7201
lhand -17.6634 -21.4127
lfingers 7.12502
lthumb 8.59513 8.39232
rfemur -33.2613 5.77526 29.6255
rtibia 27.5599
rfoot -30.1474 -36.3469
rtoes -28.062
lfemur -35.0936 3.40146 -11.7929
ltibia 34.2173
lfoot -35.9587 5.61522
ltoes -0.951488
